{"title":"Larry Crowne *2011* [CAM.XviD-miguel] [ENG]","uid":6532875,"size":763825364,"categoryP":"video","categoryS":"movies","magnet":"?xt=urn:btih:ccba3b24414b651aaae4f2fa4532498340660e91&amp;dn=Larry+Crowne+%2A2011%2A+%5BCAM.XviD-miguel%5D+%5BENG%5D&amp;tr=udp%3A%2F%2Ftracker.openbittorrent.com%3A80&amp;tr=udp%3A%2F%2Fopen.demonii.com%3A1337&amp;tr=udp%3A%2F%2Ftracker.coppersurfer.tk%3A6969&amp;tr=udp%3A%2F%2Fexodus.desync.com%3A6969","seeders":1,"leechers":0,"uploader":"miguel1983","files":-1,"time":1310411771,"description":" &lt;a href=&quot;http://img16.imageshack.us/img16/8501/73796273.jpg&quot; rel=&quot;nofollow&quot; target=&quot;_NEW&quot;&gt;http://img16.imageshack.us/img16/8501/73796273.jpg&lt;/a&gt;\n\nCountry.......: USA\nGenre.........: Drama, Comedy, Romance\nDate release..: 01.07.2011 [World]\nDirector......: Tom Hanks\nWriters.......: Tom Hanks, Nia Vardalos\nDuration......: 98 min.\nMore..........: http://www.imdb.com/title/tt1583420\nTrailer.......: http://www.imdb.com/video/imdb/vi1973459993\nTrailer.......:\n\nPilot :\nAfter losing his job, a middle-aged man reinvents himself by going back to college. \n\nCats :\nTom Hanks   \t ...  \tLarry Crowne\nSarah Mahoney \t... \tSamantha\nRoxana Ortega \t... \tAlvarez\nRandall Park \t... \tTrainee Wong\nBrady Rubin \t... \tDorothy Genkos\nAlex Quijano \t... \tTeam Leader #1\nTina Huang \t... \tTeam Leader #2\nE Kan Soong \t... \tTeam Leader #3\nTarina Pouncy \t... \tTeam Leader #4\nSy Richardson \t... \tAvery\nJulie Wagner \t... \tVacuum Shopper\nRob Riggle \t... \tJack Strang\nErin Underwood \t... \tMom with Baby\nDale Dye \t... \tCox\nBarry Sobel \t... \tCubby \n\nData Technical :\n!!! SAMPLE !!!\nAudio.....: English\nSubtitles.: Brak\nFormat                           : AVI\nFormat/Info                      : Audio Video Interleave\nFile size                        : 725 MiB\nDuration                         : 1h 38mn\nOverall bit rate                 : 1 032 Kbps\nWriting library                  : VirtualDub build 32842/release\nVideo\nID                               : 0\nFormat                           : MPEG-4 Visual\nFormat profile                   : Advanced Simple@L5\nFormat settings, BVOP            : Yes\nFormat settings, QPel            : No\nFormat settings, GMC             : No warppoints\nFormat settings, Matrix          : Default (H.263)\nCodec ID                         : XVID\nCodec ID/Hint                    : XviD\nDuration                         : 1h 38mn\nBit rate                         : 895 Kbps\nWidth                            : 640 pixels\nHeight                           : 224 pixels\nDisplay aspect ratio             : 2.857\nFrame rate                       : 23.000 fps\nColor space                      : YUV\nChroma subsampling               : 4:2:0\nBit depth                        : 8 bits\nScan type                        : Progressive\nBits/(Pixel*Frame)               : 0.272\nStream size                      : 629 MiB (87%)\nWriting library                  : XviD 63\nAudio\nID                               : 1\nFormat                           : AC-3\nFormat/Info                      : Audio Coding 3\nMode extension                   : CM (complete main)\nCodec ID                         : 2000\nDuration                         : 1h 38mn\nBit rate mode                    : Constant\nBit rate                         : 128 Kbps\nChannel(s)                       : 2 channels\nChannel positions                : Front: L R\nSampling rate                    : 44.1 KHz\nBit depth                        : 16 bits\nStream size                      : 89.9 MiB (12%)\nAlignment                        : Split accross interleaves\nInterleave, duration             : 43 ms (1.00 video frame)\nInterleave, preload duration     : 500 ms\n\nScreen : &lt;a href=&quot;\nhttp://img199.imageshack.us/img199/1391/larrycrowne2011s1.jpg&quot; rel=&quot;nofollow&quot; target=&quot;_NEW&quot;&gt;\nhttp://img199.imageshack.us/img199/1391/larrycrowne2011s1.jpg&lt;/a&gt; &lt;a href=&quot;\nhttp://img193.imageshack.us/img193/6240/larrycrowne2011s2.jpg&quot; rel=&quot;nofollow&quot; target=&quot;_NEW&quot;&gt;\nhttp://img193.imageshack.us/img193/6240/larrycrowne2011s2.jpg&lt;/a&gt; &lt;a href=&quot;\nhttp://img233.imageshack.us/img233/1605/larrycrowne2011s3.jpg&quot; rel=&quot;nofollow&quot; target=&quot;_NEW&quot;&gt;\nhttp://img233.imageshack.us/img233/1605/larrycrowne2011s3.jpg&lt;/a&gt; &lt;a href=&quot;\nhttp://img14.imageshack.us/img14/5559/larrycrowne2011s4.jpg&quot; rel=&quot;nofollow&quot; target=&quot;_NEW&quot;&gt;\nhttp://img14.imageshack.us/img14/5559/larrycrowne2011s4.jpg&lt;/a&gt; &lt;a href=&quot;\nhttp://img5.imageshack.us/img5/5527/larrycrowne2011s5.jpg&quot; rel=&quot;nofollow&quot; target=&quot;_NEW&quot;&gt;\nhttp://img5.imageshack.us/img5/5527/larrycrowne2011s5.jpg&lt;/a&gt;","torrent":{"xt":"urn:btih:ccba3b24414b651aaae4f2fa4532498340660e91","amp;dn":"Larry+Crowne+%2A2011%2A+%5BCAM.XviD-miguel%5D+%5BENG%5D","amp;tr":["udp%3A%2F%2Ftracker.openbittorrent.com%3A80","udp%3A%2F%2Fopen.demonii.com%3A1337","udp%3A%2F%2Ftracker.coppersurfer.tk%3A6969","udp%3A%2F%2Fexodus.desync.com%3A6969"],"infoHash":"ccba3b24414b651aaae4f2fa4532498340660e91","infoHashBuffer":{"type":"Buffer","data":[204,186,59,36,65,75,101,26,170,228,242,250,69,50,73,131,64,102,14,145]},"announce":[],"urlList":[]}}